<svg
   xmlns="http://www.w3.org/2000/svg"
   width="1em"
   height="1em"
   fill="currentColor"
   viewBox="0 0 16 12">
    <path
       d="m 8.0000003,-0.3906251 q -1.625,0 -2.4479167,1.6041667 -0.8125,1.5937501 -0.8125,4.8020835 0,3.1979167 0.8125,4.8020839 0.8229167,1.59375 2.4479167,1.59375 1.6354167,0 2.4479167,-1.59375 0.822917,-1.6041672 0.822917,-4.8020839 0,-3.2083334 -0.822917,-4.8020835 -0.8125,-1.6041667 -2.4479167,-1.6041667 z m 0,-1.6666667 q 2.6145837,0 3.9895837,2.07291671 Q 13.375,2.078125 13.375,6.0156251 q 0,3.9270834 -1.385416,5.9999999 -1.375,2.0625 -3.9895837,2.0625 -2.6145834,0 -4.0000001,-2.0625 -1.375,-2.0729165 -1.375,-5.9999999 0,-3.9375001 1.375,-6.00000019 1.3854167,-2.07291671 4.0000001,-2.07291671 z"
        />
</svg>