<svg
   xmlns="http://www.w3.org/2000/svg"
   width="1em"
   height="1em"
   fill="currentColor"
   viewBox="0 0 16 12">
    <path
       d="M 5.5937502,12.145834 H 12.9375 v 1.770833 H 3.0625002 V 12.145834 Q 4.2604169,10.90625 6.3229169,8.8229168 8.3958337,6.7291668 8.9270837,6.1250001 9.9375004,4.9895834 10.333334,4.2083334 q 0.40625,-0.7916667 0.40625,-1.5520834 0,-1.2395834 -0.8750003,-2.02083341 -0.8645834,-0.78125002 -2.2604167,-0.78125002 -0.9895834,0 -2.0937501,0.34375001 -1.09375,0.34375001 -2.3437501,1.04166672 v -2.12500009 q 1.2708334,-0.51041671 2.3750001,-0.77083331 1.1041667,-0.2604167 2.0208334,-0.2604167 2.4166667,0 3.8541667,1.20833335 1.4375,1.20833337 1.4375,3.22916675 0,0.9583334 -0.364583,1.8229167 Q 12.135417,5.1979167 11.1875,6.3645834 10.927084,6.6666668 9.5312504,8.1145835 8.135417,9.5520835 5.5937502,12.145834 Z"
        />
</svg>