<svg
   xmlns="http://www.w3.org/2000/svg"
   width="1em"
   height="1em"
   fill="currentColor"
   viewBox="0 0 16 12">
    <path
       d="m 9.9114584,5.3802081 q 1.5104166,0.3229167 2.3541666,1.34375 0.854167,1.0208334 0.854167,2.5208334 0,2.3020835 -1.583334,3.5625005 -1.5833329,1.260416 -4.4999997,1.260416 -0.9791667,0 -2.0208334,-0.197916 -1.03125,-0.1875 -2.1354167,-0.572917 v -2.03125 q 0.875,0.510417 1.9166667,0.770833 1.0416667,0.260417 2.1770834,0.260417 1.9791667,0 3.0104168,-0.78125 1.0416669,-0.78125 1.0416669,-2.2708335 0,-1.375 -0.96875,-2.1458334 -0.9583336,-0.78125 -2.6770837,-0.78125 h -1.8125 V 4.5885414 h 1.8958333 q 1.5520834,0 2.3750001,-0.6145834 0.8229163,-0.625 0.8229163,-1.7916667 0,-1.19791668 -0.8541663,-1.83333337 -0.84375,-0.64583335 -2.4270834,-0.64583335 -0.8645833,0 -1.8541667,0.18750001 -0.9895834,0.1875 -2.1770834,0.58333335 V -1.4010421 q 1.1979167,-0.3333334 2.2395834,-0.5 1.0520834,-0.1666667 1.9791667,-0.1666667 2.3958334,0 3.7916667,1.09375003 1.395833,1.08333336 1.395833,2.93750007 0,1.2916667 -0.739583,2.1875001 -0.739583,0.8854167 -2.1041666,1.2291667 z"
        />
</svg>