<svg
   xmlns="http://www.w3.org/2000/svg"
   width="1em"
   height="1em"
   fill="currentColor"
   viewBox="0 0 16 12">
    <path
       d="m 3.6249995,-1.9270838 h 8.2604165 v 1.77083339 H 5.5520829 V 3.6562497 q 0.4583334,-0.15625 0.9166667,-0.2291667 0.4583334,-0.083333 0.9166667,-0.083333 2.6041668,0 4.1249997,1.4270834 1.520834,1.4270833 1.520834,3.8645834 0,2.5104165 -1.5625,3.9062505 -1.5625003,1.385416 -4.4062503,1.385416 -0.9791667,0 -2.0000001,-0.166666 -1.0104167,-0.166667 -2.0937501,-0.5 v -2.114584 q 0.9375001,0.510417 1.9375001,0.760417 1,0.25 2.1145834,0.25 1.8020834,0 2.8541667,-0.947917 1.0520833,-0.947916 1.0520833,-2.5729165 0,-1.625 -1.0520833,-2.5729167 Q 8.8229164,5.1145831 7.020833,5.1145831 q -0.84375,0 -1.6875001,0.1875 -0.8333333,0.1875 -1.7083334,0.5833333 z"
        />

</svg>