<svg
   xmlns="http://www.w3.org/2000/svg"
   width="1em"
   height="1em"
   fill="currentColor"
   viewBox="0 0 16 12">
    <path
       d="m 8.1822915,5.1510414 q -1.4166667,0 -2.2500001,0.96875 -0.8229166,0.9687501 -0.8229166,2.6562501 0,1.6770835 0.8229166,2.6562505 0.8333334,0.96875 2.2500001,0.96875 1.4166667,0 2.2395835,-0.96875 0.833333,-0.979167 0.833333,-2.6562505 0,-1.6875 -0.833333,-2.6562501 -0.8229168,-0.96875 -2.2395835,-0.96875 z M 12.359375,-1.4427088 V 0.47395794 Q 11.567708,0.09895793 10.755208,-0.09895875 9.9531249,-0.29687542 9.1614582,-0.29687542 q -2.0833334,0 -3.1875001,1.40625002 -1.09375,1.4062501 -1.25,4.2500001 0.6145833,-0.90625 1.5416667,-1.3854167 0.9270834,-0.4895833 2.0416667,-0.4895833 2.3437505,0 3.6979165,1.4270834 1.364584,1.4166667 1.364584,3.8645834 0,2.3958335 -1.416667,3.8437505 -1.416667,1.447916 -3.7708335,1.447916 -2.6979167,0 -4.1250001,-2.0625 Q 2.630208,9.9322916 2.630208,6.0052081 q 0,-3.6875001 1.7500001,-5.87500017 1.75,-2.19791673 4.6979168,-2.19791673 0.7916667,0 1.5937501,0.15625 0.8125,0.15625 1.6875,0.46875 z"
        />

</svg>