<svg
   xmlns="http://www.w3.org/2000/svg"
   width="1em"
   height="1em"
   fill="currentColor"
   viewBox="0 0 16 12">
    <path
       d="m 8.0000003,6.3802081 q -1.5,0 -2.3645834,0.8020834 -0.8541667,0.8020833 -0.8541667,2.2083334 0,1.4062501 0.8541667,2.2083331 0.8645834,0.802084 2.3645834,0.802084 1.5000001,0 2.3645837,-0.802084 0.864583,-0.8125 0.864583,-2.2083331 0,-1.4062501 -0.864583,-2.2083334 Q 9.510417,6.3802081 8.0000003,6.3802081 Z M 5.8958336,5.4843748 Q 4.5416669,5.1510414 3.7812502,4.223958 q -0.75,-0.9270833 -0.75,-2.2604167 0,-1.86458337 1.3229167,-2.94791674 1.3333333,-1.08333336 3.6458334,-1.08333336 2.3229167,0 3.6458337,1.08333336 1.322916,1.08333337 1.322916,2.94791674 0,1.3333334 -0.760416,2.2604167 -0.75,0.9270834 -2.09375,1.2604168 1.520833,0.3541666 2.364583,1.3854167 0.854167,1.03125 0.854167,2.5208334 0,2.2604171 -1.385417,3.4687501 -1.375,1.208333 -3.9479167,1.208333 -2.5729167,0 -3.9583334,-1.208333 -1.3750001,-1.208333 -1.3750001,-3.4687501 0,-1.4895834 0.8541667,-2.5208334 Q 4.3750002,5.8385414 5.8958336,5.4843748 Z M 5.1250002,2.161458 q 0,1.2083334 0.7500001,1.8854167 0.7604166,0.6770834 2.125,0.6770834 1.3541667,0 2.1145837,-0.6770834 0.770833,-0.6770833 0.770833,-1.8854167 0,-1.20833338 -0.770833,-1.88541674 -0.760417,-0.67708335 -2.1145837,-0.67708335 -1.3645834,0 -2.125,0.67708335 Q 5.1250002,0.95312462 5.1250002,2.161458 Z"
        />

</svg>