<svg
   xmlns="http://www.w3.org/2000/svg"
   width="1em"
   height="1em"
   fill="currentColor"
   viewBox="0 0 16 12">
   <path
   d="m 3.6354162,13.442708 v -1.916666 q 0.7916667,0.375 1.6041667,0.572916 0.8125001,0.197917 1.5937501,0.197917 2.0833334,0 3.177083,-1.395833 1.104167,-1.4062505 1.260417,-4.2604172 -0.604167,0.8958333 -1.5312499,1.375 -0.9270834,0.4791667 -2.0520834,0.4791667 -2.3333334,0 -3.6979168,-1.40625 Q 2.6354162,5.6718748 2.6354162,3.223958 q 0,-2.39583339 1.4166667,-3.8437501 1.4166667,-1.4479167 3.7708334,-1.4479167 2.6979167,0 4.1145837,2.07291672 1.427083,2.06250008 1.427083,6.00000018 0,3.6770834 -1.75,5.8749999 -1.7395833,2.1875 -4.6875,2.1875 -0.7916667,0 -1.6041667,-0.15625 -0.8125001,-0.15625 -1.6875001,-0.46875 z M 7.8229163,6.8489581 q 1.4166667,0 2.2395837,-0.96875 0.833333,-0.96875 0.833333,-2.6562501 0,-1.6770834 -0.833333,-2.64583339 -0.822917,-0.9791667 -2.2395837,-0.9791667 -1.4166667,0 -2.25,0.9791667 Q 4.7499996,1.5468746 4.7499996,3.223958 q 0,1.6875001 0.8229167,2.6562501 0.8333333,0.96875 2.25,0.96875 z"
       
        />

</svg>